<svg width="25" height="18" viewBox="0 0 25 18" fill="none" xmlns="http://www.w3.org/2000/svg">
<path d="M20.7207 1.61615C20.7141 1.60359 20.7033 1.59375 20.69 1.58838C19.1577 0.894616 17.5408 0.399905 15.8795 0.116631C15.8645 0.113862 15.8489 0.11586 15.835 0.122339C15.8211 0.128819 15.8097 0.139452 15.8023 0.152725C15.5821 0.547094 15.3822 0.952177 15.2034 1.36643C13.4127 1.09818 11.5912 1.09818 9.8005 1.36643C9.6205 0.951125 9.41743 0.545942 9.19219 0.152725C9.18446 0.13974 9.17295 0.129353 9.15916 0.122915C9.14537 0.116477 9.12993 0.114287 9.11485 0.116631C7.45346 0.39931 5.83638 0.894059 4.30431 1.58842C4.2912 1.59391 4.28013 1.60328 4.27264 1.61524C1.20882 6.13045 0.369525 10.5346 0.781256 14.8843C0.782414 14.895 0.785733 14.9053 0.791015 14.9147C0.796297 14.924 0.803434 14.9322 0.812003 14.9388C2.59604 16.2424 4.5915 17.2374 6.71324 17.8814C6.72818 17.8859 6.74414 17.8857 6.75896 17.8809C6.77379 17.8761 6.78677 17.8669 6.79616 17.8546C7.25186 17.2427 7.65565 16.5948 8.00342 15.9174C8.00819 15.9081 8.01092 15.8979 8.01142 15.8875C8.01192 15.8771 8.01018 15.8667 8.00631 15.857C8.00244 15.8473 7.99653 15.8385 7.98897 15.8312C7.98141 15.8239 7.97238 15.8183 7.96246 15.8147C7.32572 15.5743 6.70927 15.2845 6.11892 14.948C6.10819 14.9417 6.09919 14.933 6.09269 14.9225C6.0862 14.9121 6.08242 14.9002 6.08168 14.8879C6.08095 14.8757 6.08328 14.8634 6.08848 14.8523C6.09368 14.8411 6.10158 14.8314 6.11148 14.824C6.23536 14.7324 6.35931 14.6371 6.47759 14.5409C6.4881 14.5324 6.50082 14.5269 6.51431 14.5251C6.5278 14.5233 6.54154 14.5252 6.55396 14.5307C10.4216 16.2726 14.6089 16.2726 18.4308 14.5307C18.4432 14.5249 18.4571 14.5227 18.4708 14.5243C18.4845 14.5259 18.4974 14.5314 18.5081 14.54C18.6265 14.6362 18.7504 14.7324 18.8752 14.824C18.8851 14.8313 18.8931 14.841 18.8984 14.8521C18.9036 14.8632 18.9061 14.8754 18.9054 14.8877C18.9048 14.8999 18.9011 14.9118 18.8947 14.9224C18.8883 14.9329 18.8793 14.9417 18.8686 14.948C18.2796 15.2873 17.6626 15.5769 17.0242 15.8138C17.0143 15.8175 17.0053 15.8233 16.9978 15.8307C16.9903 15.8381 16.9844 15.8469 16.9807 15.8567C16.9769 15.8665 16.9752 15.877 16.9758 15.8874C16.9764 15.8979 16.9792 15.9081 16.984 15.9174C17.3376 16.591 17.7408 17.2381 18.1904 17.8535C18.1995 17.8662 18.2124 17.8756 18.2273 17.8806C18.2422 17.8856 18.2583 17.8859 18.2733 17.8813C20.3988 17.2395 22.3978 16.2444 24.184 14.9388C24.1927 14.9326 24.2 14.9246 24.2053 14.9153C24.2106 14.9061 24.2138 14.8958 24.2148 14.8852C24.7077 9.85656 23.3896 5.48846 20.7207 1.61615ZM8.58102 12.2358C7.41657 12.2358 6.4571 11.1813 6.4571 9.88619C6.4571 8.59109 7.39796 7.53648 8.58102 7.53648C9.77333 7.53648 10.7235 8.60026 10.7049 9.88611C10.7049 11.1813 9.764 12.2358 8.58102 12.2358ZM16.4338 12.2358C15.2694 12.2358 14.3099 11.1813 14.3099 9.88619C14.3099 8.59109 15.2508 7.53648 16.4338 7.53648C17.6262 7.53648 18.5763 8.60026 18.5577 9.88611C18.5577 11.1813 17.6262 12.2358 16.4338 12.2358Z" fill="white"/>
</svg>
