<svg width="22" height="22" viewBox="0 0 22 22" fill="none" xmlns="http://www.w3.org/2000/svg">
<path d="M10.8999 5.60938C7.8999 5.60938 5.50928 8.04688 5.50928 11C5.50928 14 7.8999 16.3906 10.8999 16.3906C13.853 16.3906 16.2905 14 16.2905 11C16.2905 8.04688 13.853 5.60938 10.8999 5.60938ZM10.8999 14.5156C8.97803 14.5156 7.38428 12.9688 7.38428 11C7.38428 9.07812 8.93115 7.53125 10.8999 7.53125C12.8218 7.53125 14.3687 9.07812 14.3687 11C14.3687 12.9688 12.8218 14.5156 10.8999 14.5156ZM17.7437 5.42188C17.7437 4.71875 17.1812 4.15625 16.478 4.15625C15.7749 4.15625 15.2124 4.71875 15.2124 5.42188C15.2124 6.125 15.7749 6.6875 16.478 6.6875C17.1812 6.6875 17.7437 6.125 17.7437 5.42188ZM21.3062 6.6875C21.2124 5 20.8374 3.5 19.6187 2.28125C18.3999 1.0625 16.8999 0.6875 15.2124 0.59375C13.478 0.5 8.2749 0.5 6.54053 0.59375C4.85303 0.6875 3.3999 1.0625 2.13428 2.28125C0.915527 3.5 0.540527 5 0.446777 6.6875C0.353027 8.42188 0.353027 13.625 0.446777 15.3594C0.540527 17.0469 0.915527 18.5 2.13428 19.7656C3.3999 20.9844 4.85303 21.3594 6.54053 21.4531C8.2749 21.5469 13.478 21.5469 15.2124 21.4531C16.8999 21.3594 18.3999 20.9844 19.6187 19.7656C20.8374 18.5 21.2124 17.0469 21.3062 15.3594C21.3999 13.625 21.3999 8.42188 21.3062 6.6875ZM19.0562 17.1875C18.728 18.125 17.978 18.8281 17.0874 19.2031C15.6812 19.7656 12.3999 19.625 10.8999 19.625C9.35303 19.625 6.07178 19.7656 4.7124 19.2031C3.7749 18.8281 3.07178 18.125 2.69678 17.1875C2.13428 15.8281 2.2749 12.5469 2.2749 11C2.2749 9.5 2.13428 6.21875 2.69678 4.8125C3.07178 3.92188 3.7749 3.21875 4.7124 2.84375C6.07178 2.28125 9.35303 2.42188 10.8999 2.42188C12.3999 2.42188 15.6812 2.28125 17.0874 2.84375C17.978 3.17188 18.6812 3.92188 19.0562 4.8125C19.6187 6.21875 19.478 9.5 19.478 11C19.478 12.5469 19.6187 15.8281 19.0562 17.1875Z" fill="white"/>
</svg>
