<svg width="208" height="48" viewBox="0 0 208 48" fill="none" xmlns="http://www.w3.org/2000/svg">
<path fill-rule="evenodd" clip-rule="evenodd" d="M22.7667 48C35.3403 48 45.5333 37.2548 45.5333 24C45.5333 10.7452 35.3403 0 22.7667 0C10.193 0 0 10.7452 0 24C0 37.2548 10.193 48 22.7667 48Z" fill="white"/>
<path fill-rule="evenodd" clip-rule="evenodd" d="M14.7399 29.5718L21.7021 12.9229H16.31L7.51078 33.9229H23.7098L25.1615 29.6322H30.524L30.8499 33.9229H36.5383L33.4571 12.9229H26.9391L19.9161 29.5718H14.7399ZM26.4947 25.6437H30.2574L29.5759 16.5488L26.4947 25.6437Z" fill="#60CEE7"/>
<path d="M69.36 31.4951H77.0051V36H63.5238V12.042H69.36V31.4951Z" fill="white"/>
<path d="M94.7036 31.7681H85.7615L84.3281 36H78.2188L86.8878 12.042H93.6456L102.315 36H96.137L94.7036 31.7681ZM93.2019 27.2632L90.2326 18.4923L87.2974 27.2632H93.2019Z" fill="white"/>
<path d="M119.111 12.042V16.7176H112.763V36H106.927V16.7176H100.579V12.042H119.111Z" fill="white"/>
<path d="M160.288 36L152.234 25.4203V36H146.397V12.042H152.234V22.5535L160.22 12.042H167.08L157.797 23.7821L167.421 36H160.288Z" fill="white"/>
<path d="M174.974 16.7176V21.5638H182.79V26.0687H174.974V31.3244H183.814V36H169.138V12.042H183.814V16.7176H174.974Z" fill="white"/>
<path d="M207.524 36H201.688L191.926 21.2225V36H186.09V12.042H191.926L201.688 26.8878V12.042H207.524V36Z" fill="white"/>
<path d="M132.108 35.9396C129.88 35.9396 127.833 35.4291 125.965 34.408C124.12 33.387 122.646 31.9664 121.544 30.1462C120.464 28.3038 119.924 26.2395 119.924 23.9532C119.924 21.6669 120.464 19.6136 121.544 17.7935C122.646 15.9733 124.12 14.5527 125.965 13.5316C127.833 12.5105 129.88 12 132.108 12C134.335 12 136.371 12.5105 138.216 13.5316C140.084 14.5527 141.546 15.9733 142.604 17.7935C143.684 19.6136 144.224 21.6669 144.224 23.9532C144.224 26.2395 143.684 28.3038 142.604 30.1462C141.524 31.9664 140.061 33.387 138.216 34.408C136.371 35.4291 134.335 35.9396 132.108 35.9396ZM132.108 30.7455C133.998 30.7455 135.505 30.124 136.63 28.8809C137.778 27.6379 138.351 25.9953 138.351 23.9532C138.351 21.8888 137.778 20.2462 136.63 19.0254C135.505 17.7824 133.998 17.1608 132.108 17.1608C130.195 17.1608 128.665 17.7713 127.518 18.9921C126.393 20.213 125.83 21.8666 125.83 23.9532C125.83 26.0175 126.393 27.6712 127.518 28.9142C128.665 30.1351 130.195 30.7455 132.108 30.7455Z" fill="white"/>
</svg>
