<svg width="25" height="20" viewBox="0 0 25 20" fill="none" xmlns="http://www.w3.org/2000/svg">
<path d="M21.6152 5.125C22.5527 4.42188 23.3965 3.57812 24.0527 2.59375C23.209 2.96875 22.2246 3.25 21.2402 3.34375C22.2715 2.73438 23.0215 1.79688 23.3965 0.625C22.459 1.1875 21.3809 1.60938 20.3027 1.84375C19.3652 0.859375 18.0996 0.296875 16.6934 0.296875C13.9746 0.296875 11.7715 2.5 11.7715 5.21875C11.7715 5.59375 11.8184 5.96875 11.9121 6.34375C7.83398 6.10938 4.17773 4.14062 1.74023 1.1875C1.31836 1.89062 1.08398 2.73438 1.08398 3.67188C1.08398 5.35938 1.92773 6.85938 3.28711 7.75C2.49023 7.70312 1.69336 7.51562 1.03711 7.14062V7.1875C1.03711 9.57812 2.72461 11.5469 4.97461 12.0156C4.59961 12.1094 4.13086 12.2031 3.70898 12.2031C3.38086 12.2031 3.09961 12.1562 2.77148 12.1094C3.38086 14.0781 5.20898 15.4844 7.36523 15.5312C5.67773 16.8438 3.56836 17.6406 1.27148 17.6406C0.849609 17.6406 0.474609 17.5938 0.0996094 17.5469C2.25586 18.9531 4.83398 19.75 7.64648 19.75C16.6934 19.75 21.6152 12.2969 21.6152 5.78125C21.6152 5.54688 21.6152 5.35938 21.6152 5.125Z" fill="white"/>
</svg>
