<svg width="19" height="20" viewBox="0 0 19 20" fill="none" xmlns="http://www.w3.org/2000/svg">
<path d="M5.81667 0.833496H13.5167C16.45 0.833496 18.8333 3.21683 18.8333 6.15016V13.8502C18.8333 15.2602 18.2732 16.6125 17.2761 17.6096C16.279 18.6067 14.9267 19.1668 13.5167 19.1668H5.81667C2.88333 19.1668 0.5 16.7835 0.5 13.8502V6.15016C0.5 4.7401 1.06015 3.38778 2.05722 2.39071C3.05428 1.39364 4.4066 0.833496 5.81667 0.833496ZM5.63333 2.66683C4.75812 2.66683 3.91875 3.01451 3.29988 3.63338C2.68101 4.25225 2.33333 5.09162 2.33333 5.96683V14.0335C2.33333 15.8577 3.80917 17.3335 5.63333 17.3335H13.7C14.5752 17.3335 15.4146 16.9858 16.0335 16.367C16.6523 15.7481 17 14.9087 17 14.0335V5.96683C17 4.14266 15.5242 2.66683 13.7 2.66683H5.63333ZM14.4792 4.04183C14.7831 4.04183 15.0745 4.16255 15.2894 4.37744C15.5043 4.59232 15.625 4.88377 15.625 5.18766C15.625 5.49156 15.5043 5.783 15.2894 5.99789C15.0745 6.21277 14.7831 6.3335 14.4792 6.3335C14.1753 6.3335 13.8838 6.21277 13.6689 5.99789C13.4541 5.783 13.3333 5.49156 13.3333 5.18766C13.3333 4.88377 13.4541 4.59232 13.6689 4.37744C13.8838 4.16255 14.1753 4.04183 14.4792 4.04183ZM9.66667 5.41683C10.8822 5.41683 12.048 5.89971 12.9076 6.75926C13.7671 7.6188 14.25 8.78459 14.25 10.0002C14.25 11.2157 13.7671 12.3815 12.9076 13.2411C12.048 14.1006 10.8822 14.5835 9.66667 14.5835C8.45109 14.5835 7.2853 14.1006 6.42576 13.2411C5.56622 12.3815 5.08333 11.2157 5.08333 10.0002C5.08333 8.78459 5.56622 7.6188 6.42576 6.75926C7.2853 5.89971 8.45109 5.41683 9.66667 5.41683ZM9.66667 7.25016C8.93732 7.25016 8.23785 7.53989 7.72212 8.05562C7.2064 8.57134 6.91667 9.27082 6.91667 10.0002C6.91667 10.7295 7.2064 11.429 7.72212 11.9447C8.23785 12.4604 8.93732 12.7502 9.66667 12.7502C10.396 12.7502 11.0955 12.4604 11.6112 11.9447C12.1269 11.429 12.4167 10.7295 12.4167 10.0002C12.4167 9.27082 12.1269 8.57134 11.6112 8.05562C11.0955 7.53989 10.396 7.25016 9.66667 7.25016Z" fill="#D3D9DE"/>
</svg>
