<svg width="19" height="14" viewBox="0 0 19 14" fill="none" xmlns="http://www.w3.org/2000/svg">
<path d="M7.83333 9.75016L12.5908 7.00016L7.83333 4.25016V9.75016ZM18.43 2.57266C18.5492 3.0035 18.6317 3.581 18.6867 4.31433C18.7508 5.04766 18.7783 5.68016 18.7783 6.23016L18.8333 7.00016C18.8333 9.00766 18.6867 10.4835 18.43 11.4277C18.2008 12.2527 17.6692 12.7843 16.8442 13.0135C16.4133 13.1327 15.625 13.2152 14.415 13.2702C13.2233 13.3343 12.1325 13.3618 11.1242 13.3618L9.66667 13.4168C5.82583 13.4168 3.43333 13.2702 2.48917 13.0135C1.66417 12.7843 1.1325 12.2527 0.903333 11.4277C0.784167 10.9968 0.701667 10.4193 0.646667 9.686C0.5825 8.95266 0.555 8.32016 0.555 7.77016L0.5 7.00016C0.5 4.99266 0.646667 3.51683 0.903333 2.57266C1.1325 1.74766 1.66417 1.216 2.48917 0.98683C2.92 0.867663 3.70833 0.785163 4.91833 0.730163C6.11 0.665996 7.20083 0.638496 8.20917 0.638496L9.66667 0.583496C13.5075 0.583496 15.9 0.730163 16.8442 0.98683C17.6692 1.216 18.2008 1.74766 18.43 2.57266Z" fill="#D3D9DE"/>
</svg>
