<svg width="17" height="18" viewBox="0 0 17 18" fill="none" xmlns="http://www.w3.org/2000/svg">
<path d="M15.1667 0.75C15.6529 0.75 16.1192 0.943154 16.463 1.28697C16.8068 1.63079 17 2.0971 17 2.58333V15.4167C17 15.9029 16.8068 16.3692 16.463 16.713C16.1192 17.0568 15.6529 17.25 15.1667 17.25H2.33333C1.8471 17.25 1.38079 17.0568 1.03697 16.713C0.693154 16.3692 0.5 15.9029 0.5 15.4167V2.58333C0.5 2.0971 0.693154 1.63079 1.03697 1.28697C1.38079 0.943154 1.8471 0.75 2.33333 0.75H15.1667ZM14.7083 14.9583V10.1C14.7083 9.30744 14.3935 8.54735 13.8331 7.98693C13.2726 7.42651 12.5126 7.11167 11.72 7.11167C10.9408 7.11167 10.0333 7.58833 9.59333 8.30333V7.28583H7.03583V14.9583H9.59333V10.4392C9.59333 9.73333 10.1617 9.15583 10.8675 9.15583C11.2079 9.15583 11.5343 9.29104 11.775 9.53171C12.0156 9.77238 12.1508 10.0988 12.1508 10.4392V14.9583H14.7083ZM4.05667 5.84667C4.4651 5.84667 4.85681 5.68442 5.14561 5.39561C5.43442 5.10681 5.59667 4.7151 5.59667 4.30667C5.59667 3.45417 4.90917 2.7575 4.05667 2.7575C3.6458 2.7575 3.25177 2.92072 2.96124 3.21124C2.67072 3.50177 2.5075 3.8958 2.5075 4.30667C2.5075 5.15917 3.20417 5.84667 4.05667 5.84667ZM5.33083 14.9583V7.28583H2.79167V14.9583H5.33083Z" fill="#D3D9DE"/>
</svg>
